<mxfile host="app.diagrams.net" modified="2023-05-29T14:52:26.926Z" agent="Mozilla/5.0 (Macintosh; Intel Mac OS X 10_15_7) AppleWebKit/537.36 (KHTML, like Gecko) Chrome/113.0.0.0 Safari/537.36" etag="ZBwrrj-s7p9zioW6eUl7" version="21.3.5" type="github">
  <diagram name="第 1 页" id="BkI8JdYgQdZCdrs7bFFf">
    <mxGraphModel dx="3585" dy="1855" grid="1" gridSize="10" guides="1" tooltips="1" connect="1" arrows="1" fold="1" page="1" pageScale="1" pageWidth="1654" pageHeight="2336" math="0" shadow="0">
      <root>
        <mxCell id="0" />
        <mxCell id="1" parent="0" />
        <mxCell id="ffHTg9A-WrRPwyuQ6HW6-67" style="edgeStyle=orthogonalEdgeStyle;rounded=0;orthogonalLoop=1;jettySize=auto;html=1;exitX=0.5;exitY=1;exitDx=0;exitDy=0;strokeWidth=2;" edge="1" parent="1" source="ffHTg9A-WrRPwyuQ6HW6-4" target="ffHTg9A-WrRPwyuQ6HW6-38">
          <mxGeometry relative="1" as="geometry" />
        </mxCell>
        <mxCell id="ffHTg9A-WrRPwyuQ6HW6-4" value="&lt;font style=&quot;font-size: 23px;&quot;&gt;数据收集&lt;/font&gt;" style="rounded=1;whiteSpace=wrap;html=1;strokeWidth=2;" vertex="1" parent="1">
          <mxGeometry x="150" y="480" width="310" height="80" as="geometry" />
        </mxCell>
        <mxCell id="ffHTg9A-WrRPwyuQ6HW6-45" style="edgeStyle=orthogonalEdgeStyle;rounded=0;orthogonalLoop=1;jettySize=auto;html=1;exitX=0.5;exitY=1;exitDx=0;exitDy=0;entryX=0.5;entryY=0;entryDx=0;entryDy=0;strokeWidth=2;" edge="1" parent="1" source="ffHTg9A-WrRPwyuQ6HW6-15" target="ffHTg9A-WrRPwyuQ6HW6-43">
          <mxGeometry relative="1" as="geometry" />
        </mxCell>
        <mxCell id="ffHTg9A-WrRPwyuQ6HW6-46" style="edgeStyle=orthogonalEdgeStyle;rounded=0;orthogonalLoop=1;jettySize=auto;html=1;exitX=0.5;exitY=1;exitDx=0;exitDy=0;entryX=0.5;entryY=0;entryDx=0;entryDy=0;strokeWidth=2;" edge="1" parent="1" source="ffHTg9A-WrRPwyuQ6HW6-15" target="ffHTg9A-WrRPwyuQ6HW6-44">
          <mxGeometry relative="1" as="geometry" />
        </mxCell>
        <mxCell id="ffHTg9A-WrRPwyuQ6HW6-15" value="&lt;font style=&quot;font-size: 25px;&quot;&gt;问题类型&lt;/font&gt;" style="rhombus;whiteSpace=wrap;html=1;strokeWidth=2;" vertex="1" parent="1">
          <mxGeometry x="647" y="230" width="360" height="90" as="geometry" />
        </mxCell>
        <mxCell id="ffHTg9A-WrRPwyuQ6HW6-31" value="&lt;font style=&quot;font-size: 25px;&quot;&gt;BERT-BiLSTM-CRF模型&lt;/font&gt;" style="rounded=0;whiteSpace=wrap;html=1;strokeWidth=2;" vertex="1" parent="1">
          <mxGeometry x="1190" y="674" width="310" height="80" as="geometry" />
        </mxCell>
        <mxCell id="ffHTg9A-WrRPwyuQ6HW6-32" value="&lt;font style=&quot;font-size: 25px;&quot;&gt;知识图谱模型&lt;/font&gt;" style="rounded=0;whiteSpace=wrap;html=1;strokeWidth=2;" vertex="1" parent="1">
          <mxGeometry x="1190" y="542" width="310" height="80" as="geometry" />
        </mxCell>
        <mxCell id="ffHTg9A-WrRPwyuQ6HW6-33" value="&lt;font style=&quot;font-size: 25px;&quot;&gt;BERT-BM25模型&lt;/font&gt;" style="rounded=0;whiteSpace=wrap;html=1;strokeWidth=2;" vertex="1" parent="1">
          <mxGeometry x="1190" y="806" width="310" height="80" as="geometry" />
        </mxCell>
        <mxCell id="ffHTg9A-WrRPwyuQ6HW6-34" value="&lt;font style=&quot;font-size: 25px;&quot;&gt;爬虫模型&lt;/font&gt;" style="rounded=0;whiteSpace=wrap;html=1;strokeWidth=2;" vertex="1" parent="1">
          <mxGeometry x="1190" y="410" width="310" height="80" as="geometry" />
        </mxCell>
        <mxCell id="ffHTg9A-WrRPwyuQ6HW6-35" value="&lt;font style=&quot;font-size: 25px;&quot;&gt;研究方法&lt;/font&gt;" style="rounded=0;whiteSpace=wrap;html=1;strokeWidth=2;" vertex="1" parent="1">
          <mxGeometry x="1190" y="80" width="310" height="80" as="geometry" />
        </mxCell>
        <mxCell id="ffHTg9A-WrRPwyuQ6HW6-42" style="edgeStyle=orthogonalEdgeStyle;rounded=0;orthogonalLoop=1;jettySize=auto;html=1;exitX=0.5;exitY=1;exitDx=0;exitDy=0;entryX=0.5;entryY=0;entryDx=0;entryDy=0;strokeWidth=2;" edge="1" parent="1" source="ffHTg9A-WrRPwyuQ6HW6-36" target="ffHTg9A-WrRPwyuQ6HW6-15">
          <mxGeometry relative="1" as="geometry" />
        </mxCell>
        <mxCell id="ffHTg9A-WrRPwyuQ6HW6-36" value="&lt;font style=&quot;font-size: 25px;&quot;&gt;研究内容&lt;/font&gt;" style="rounded=0;whiteSpace=wrap;html=1;strokeWidth=2;" vertex="1" parent="1">
          <mxGeometry x="672" y="80" width="310" height="80" as="geometry" />
        </mxCell>
        <mxCell id="ffHTg9A-WrRPwyuQ6HW6-66" style="edgeStyle=orthogonalEdgeStyle;rounded=0;orthogonalLoop=1;jettySize=auto;html=1;exitX=0.5;exitY=1;exitDx=0;exitDy=0;entryX=0.5;entryY=0;entryDx=0;entryDy=0;strokeWidth=2;" edge="1" parent="1" source="ffHTg9A-WrRPwyuQ6HW6-37" target="ffHTg9A-WrRPwyuQ6HW6-4">
          <mxGeometry relative="1" as="geometry" />
        </mxCell>
        <mxCell id="ffHTg9A-WrRPwyuQ6HW6-37" value="&lt;font style=&quot;font-size: 25px;&quot;&gt;研究思路&lt;/font&gt;" style="rounded=0;whiteSpace=wrap;html=1;strokeWidth=2;" vertex="1" parent="1">
          <mxGeometry x="150" y="80" width="310" height="80" as="geometry" />
        </mxCell>
        <mxCell id="ffHTg9A-WrRPwyuQ6HW6-68" style="edgeStyle=orthogonalEdgeStyle;rounded=0;orthogonalLoop=1;jettySize=auto;html=1;exitX=0.5;exitY=1;exitDx=0;exitDy=0;strokeWidth=2;" edge="1" parent="1" source="ffHTg9A-WrRPwyuQ6HW6-38" target="ffHTg9A-WrRPwyuQ6HW6-39">
          <mxGeometry relative="1" as="geometry" />
        </mxCell>
        <mxCell id="ffHTg9A-WrRPwyuQ6HW6-38" value="&lt;font style=&quot;font-size: 23px;&quot;&gt;数据处理&lt;/font&gt;" style="rounded=1;whiteSpace=wrap;html=1;strokeWidth=2;" vertex="1" parent="1">
          <mxGeometry x="150" y="900" width="310" height="80" as="geometry" />
        </mxCell>
        <mxCell id="ffHTg9A-WrRPwyuQ6HW6-69" style="edgeStyle=orthogonalEdgeStyle;rounded=0;orthogonalLoop=1;jettySize=auto;html=1;exitX=0.5;exitY=1;exitDx=0;exitDy=0;entryX=0.5;entryY=0;entryDx=0;entryDy=0;strokeWidth=2;" edge="1" parent="1" source="ffHTg9A-WrRPwyuQ6HW6-39" target="ffHTg9A-WrRPwyuQ6HW6-41">
          <mxGeometry relative="1" as="geometry" />
        </mxCell>
        <mxCell id="ffHTg9A-WrRPwyuQ6HW6-39" value="&lt;font style=&quot;font-size: 23px;&quot;&gt;数据存储与可视化&lt;/font&gt;" style="rounded=1;whiteSpace=wrap;html=1;strokeWidth=2;" vertex="1" parent="1">
          <mxGeometry x="150" y="1150" width="310" height="80" as="geometry" />
        </mxCell>
        <mxCell id="ffHTg9A-WrRPwyuQ6HW6-70" style="edgeStyle=orthogonalEdgeStyle;rounded=0;orthogonalLoop=1;jettySize=auto;html=1;exitX=1;exitY=0.5;exitDx=0;exitDy=0;entryX=0;entryY=0.5;entryDx=0;entryDy=0;strokeWidth=2;" edge="1" parent="1" source="ffHTg9A-WrRPwyuQ6HW6-41" target="ffHTg9A-WrRPwyuQ6HW6-60">
          <mxGeometry relative="1" as="geometry" />
        </mxCell>
        <mxCell id="ffHTg9A-WrRPwyuQ6HW6-41" value="&lt;font style=&quot;font-size: 23px;&quot;&gt;问答系统&lt;/font&gt;" style="rounded=1;whiteSpace=wrap;html=1;strokeWidth=2;" vertex="1" parent="1">
          <mxGeometry x="150" y="1400" width="310" height="80" as="geometry" />
        </mxCell>
        <mxCell id="ffHTg9A-WrRPwyuQ6HW6-49" style="edgeStyle=orthogonalEdgeStyle;rounded=0;orthogonalLoop=1;jettySize=auto;html=1;exitX=0.5;exitY=1;exitDx=0;exitDy=0;entryX=0.5;entryY=0;entryDx=0;entryDy=0;strokeWidth=2;" edge="1" parent="1" source="ffHTg9A-WrRPwyuQ6HW6-43" target="ffHTg9A-WrRPwyuQ6HW6-48">
          <mxGeometry relative="1" as="geometry" />
        </mxCell>
        <mxCell id="ffHTg9A-WrRPwyuQ6HW6-43" value="&lt;font style=&quot;font-size: 25px;&quot;&gt;问题数据&lt;/font&gt;" style="rounded=0;whiteSpace=wrap;html=1;strokeWidth=2;" vertex="1" parent="1">
          <mxGeometry x="560" y="420" width="240" height="80" as="geometry" />
        </mxCell>
        <mxCell id="ffHTg9A-WrRPwyuQ6HW6-51" style="edgeStyle=orthogonalEdgeStyle;rounded=0;orthogonalLoop=1;jettySize=auto;html=1;exitX=0.5;exitY=1;exitDx=0;exitDy=0;entryX=0.5;entryY=0;entryDx=0;entryDy=0;strokeWidth=2;" edge="1" parent="1" source="ffHTg9A-WrRPwyuQ6HW6-44" target="ffHTg9A-WrRPwyuQ6HW6-48">
          <mxGeometry relative="1" as="geometry" />
        </mxCell>
        <mxCell id="ffHTg9A-WrRPwyuQ6HW6-44" value="&lt;span style=&quot;font-size: 25px;&quot;&gt;回答数据&lt;/span&gt;" style="rounded=0;whiteSpace=wrap;html=1;strokeWidth=2;" vertex="1" parent="1">
          <mxGeometry x="860" y="420" width="240" height="80" as="geometry" />
        </mxCell>
        <mxCell id="ffHTg9A-WrRPwyuQ6HW6-48" value="&lt;font style=&quot;font-size: 25px;&quot;&gt;问答数据集&lt;/font&gt;" style="rounded=0;whiteSpace=wrap;html=1;strokeWidth=2;" vertex="1" parent="1">
          <mxGeometry x="860" y="630" width="240" height="80" as="geometry" />
        </mxCell>
        <mxCell id="ffHTg9A-WrRPwyuQ6HW6-53" value="&lt;font style=&quot;font-size: 25px;&quot;&gt;开源数据集&lt;/font&gt;" style="rounded=0;whiteSpace=wrap;html=1;strokeWidth=2;" vertex="1" parent="1">
          <mxGeometry x="540" y="630" width="240" height="80" as="geometry" />
        </mxCell>
        <mxCell id="ffHTg9A-WrRPwyuQ6HW6-55" value="&lt;font style=&quot;font-size: 25px;&quot;&gt;数据标注&lt;/font&gt;" style="rounded=0;whiteSpace=wrap;html=1;strokeWidth=2;" vertex="1" parent="1">
          <mxGeometry x="672" y="790" width="310" height="80" as="geometry" />
        </mxCell>
        <mxCell id="ffHTg9A-WrRPwyuQ6HW6-56" value="&lt;span style=&quot;font-size: 25px;&quot;&gt;知识抽取&lt;/span&gt;" style="rounded=0;whiteSpace=wrap;html=1;strokeWidth=2;" vertex="1" parent="1">
          <mxGeometry x="672" y="900" width="310" height="80" as="geometry" />
        </mxCell>
        <mxCell id="ffHTg9A-WrRPwyuQ6HW6-57" value="&lt;span style=&quot;font-size: 25px;&quot;&gt;知识融合&lt;/span&gt;" style="rounded=0;whiteSpace=wrap;html=1;strokeWidth=2;" vertex="1" parent="1">
          <mxGeometry x="672" y="1010" width="310" height="80" as="geometry" />
        </mxCell>
        <mxCell id="ffHTg9A-WrRPwyuQ6HW6-59" value="&lt;span style=&quot;font-size: 25px;&quot;&gt;存入知识图谱&lt;/span&gt;" style="rounded=0;whiteSpace=wrap;html=1;strokeWidth=2;" vertex="1" parent="1">
          <mxGeometry x="672" y="1150" width="310" height="80" as="geometry" />
        </mxCell>
        <mxCell id="ffHTg9A-WrRPwyuQ6HW6-60" value="&lt;span style=&quot;font-size: 25px;&quot;&gt;总结&lt;/span&gt;" style="rounded=1;whiteSpace=wrap;html=1;strokeWidth=2;" vertex="1" parent="1">
          <mxGeometry x="672" y="1400" width="310" height="80" as="geometry" />
        </mxCell>
        <mxCell id="ffHTg9A-WrRPwyuQ6HW6-62" value="&lt;font style=&quot;font-size: 25px;&quot;&gt;Neo4j图数据库&lt;/font&gt;" style="rounded=0;whiteSpace=wrap;html=1;strokeWidth=2;" vertex="1" parent="1">
          <mxGeometry x="1190" y="938" width="310" height="80" as="geometry" />
        </mxCell>
        <mxCell id="ffHTg9A-WrRPwyuQ6HW6-63" value="&lt;font style=&quot;font-size: 25px;&quot;&gt;Neo4j图数据库&lt;/font&gt;" style="rounded=0;whiteSpace=wrap;html=1;strokeWidth=2;" vertex="1" parent="1">
          <mxGeometry x="1190" y="1070" width="310" height="80" as="geometry" />
        </mxCell>
        <mxCell id="ffHTg9A-WrRPwyuQ6HW6-65" value="" style="swimlane;startSize=0;dashed=1;" vertex="1" parent="1">
          <mxGeometry x="500" y="220" width="660" height="1075" as="geometry" />
        </mxCell>
      </root>
    </mxGraphModel>
  </diagram>
</mxfile>
